<svg id="visual" viewBox="0 0 900 600" width="900" height="600" xmlns="http://www.w3.org/2000/svg" xmlns:xlink="http://www.w3.org/1999/xlink" version="1.1"><path d="M608 600L601.8 585.7C595.7 571.3 583.3 542.7 577.8 514.2C572.3 485.7 573.7 457.3 580.7 428.8C587.7 400.3 600.3 371.7 607 343C613.7 314.3 614.3 285.7 607.2 257C600 228.3 585 199.7 580.8 171.2C576.7 142.7 583.3 114.3 581.8 85.8C580.3 57.3 570.7 28.7 565.8 14.3L561 0L900 0L900 14.3C900 28.7 900 57.3 900 85.8C900 114.3 900 142.7 900 171.2C900 199.7 900 228.3 900 257C900 285.7 900 314.3 900 343C900 371.7 900 400.3 900 428.8C900 457.3 900 485.7 900 514.2C900 542.7 900 571.3 900 585.7L900 600Z" fill="#ffffff" stroke-linecap="round" stroke-linejoin="miter"></path></svg>